<svg xmlns="http://www.w3.org/2000/svg" viewBox="0 0 42.7 209.02"><defs><style>.cls-1{fill:#fff;}.cls-2{fill:#226bab;}.cls-3{fill:#08317a;}</style></defs><title>Recurso 11</title><g id="Capa_2" data-name="Capa 2"><g id="Capa_1-2" data-name="Capa 1"><path class="cls-1" d="M4.17,151.66a7.63,7.63,0,0,1,7.5.23c1.18.69,2.36,1.38,3.53,2.08l3,1.76,3.57,2.12a.06.06,0,0,0,.06,0c2.14-1.17,4.29-2.32,6.38-3.44l3-1.6a8.1,8.1,0,0,1,.9-.42,7.73,7.73,0,0,1,10.36,9.14,9.26,9.26,0,0,1-.4,1.17l-5.3,13.36L25.4,205.29a5.86,5.86,0,0,1-6.09,3.7,6.07,6.07,0,0,1-5-4.28L7.76,184,.51,161.32a8.09,8.09,0,0,1-.3-4.59,7.67,7.67,0,0,1,2.3-3.89,8.23,8.23,0,0,1,1.66-1.18Z"/><path class="cls-1" d="M25.06,0a9.67,9.67,0,0,1,9.69,10.26c-.94,16.6-1.24,38-1.52,58.73-.22,16.83-.46,34.24-1,49.42-.08,1.89-.14,4.17-.22,6.72-.37,12.89-.88,30.54-3.15,40.13l0,.11a6.39,6.39,0,0,1-6.21,4.88h-.32a6.4,6.4,0,0,1-6-5.49L15,156.16a1.49,1.49,0,0,1,0-.21c-1.59-14.4-2.42-28.84-3.21-42.8-.54-9.35-1.09-19-1.87-28.59,0-.11,0-.22,0-.33L7.68,10.29A9.69,9.69,0,0,1,17.36,0Z"/><path class="cls-2" d="M25.79,118.16c-.42,10.84-.63,34.77-3.2,45.62l0,.07-1.23-8.6C18.71,131.41,18.22,108,16.28,84L14.08,10A3.29,3.29,0,0,1,17.36,6.4h7.7a3.28,3.28,0,0,1,3.3,3.5C26.64,40.06,27.09,84.23,25.79,118.16Z"/><path class="cls-3" d="M21.22,204.15a.07.07,0,0,0,.12,0L32.62,175h0q2.66-6.69,5.3-13.36a4.76,4.76,0,0,0,.19-.53,1.76,1.76,0,0,0-.66-1.92,1.71,1.71,0,0,0-1.88-.26,3.27,3.27,0,0,0-.5.24c-3.93,2.12-7.87,4.21-11.77,6.37a.69.69,0,0,1-.68,0c-2.64-1.63-5.32-3.19-8-4.77-1.51-.9-3-1.81-4.55-2.69a1.8,1.8,0,0,0-2.29.21,1.77,1.77,0,0,0-.55.95,2.53,2.53,0,0,0,.18,1.41l7.26,22.66Z"/></g></g></svg>