<svg xmlns="http://www.w3.org/2000/svg" viewBox="0 0 244.46 344.12"><defs><style>.cls-1{fill:#fff;}.cls-2{fill:#226bab;}.cls-3{fill:#08317a;}</style></defs><title>Recurso 4</title><g id="Capa_2" data-name="Capa 2"><g id="Capa_1-2" data-name="Capa 1"><path class="cls-1" d="M20.5,56.53c24.85-5.08,51.07,2.08,77.94,21.28,24.09,17.22,42.49,39.65,53.68,55.44,15.32,21.6,25.49,43.9,30.22,66.27a540.93,540.93,0,0,1,9,59.35s0,.11,0,.12a13,13,0,0,0,26-2.31v-.1a36.27,36.27,0,0,1,1.07-5.93,68.46,68.46,0,0,0,1.39-7.28c.7-6,1.16-12.1,1.37-18.14a226.21,226.21,0,0,0-1.57-35.44A224.39,224.39,0,0,0,127.56,35.08c-3.31-2.36-6.73-4.66-10.16-6.83C90.2,11,61.22,1.28,33.58,0c0,0-12.23-.18-22.07.32A12.15,12.15,0,0,0,0,12.88L1,45.79A12.16,12.16,0,0,0,15.17,57.41Z"/><path class="cls-1" d="M238.31,241.5a14.28,14.28,0,0,0-14-1.48c-2.37,1-4.73,2-7.09,3l-6,2.51c-2.38,1-4.8,2-7.23,3-3.7-2.72-7.41-5.41-11-8l-5.13-3.72a17.45,17.45,0,0,0-1.56-1,14.5,14.5,0,0,0-21.57,14.34,20.2,20.2,0,0,0,.45,2.29l6.45,26.14,13.62,57.16a11,11,0,0,0,20.59,2.14l17.58-37.28,19.23-40.19a15.11,15.11,0,0,0,1.71-8.44,14.34,14.34,0,0,0-3.28-7.82,14.93,14.93,0,0,0-2.79-2.6Z"/><path class="cls-2" d="M13.37,41.14a3.65,3.65,0,0,0,4.24,3.42c57.53-9.1,110,39.21,140.83,82.68,15.22,21.47,26.88,45.32,32.34,71.13A549.71,549.71,0,0,1,200,259.19v.14c-.44-4.76,1.93-11.1,2.5-15.93q1-8.52,1.29-17.08a214.23,214.23,0,0,0-1.48-33.4c-7.63-62-43.45-118.69-96.25-152.11C83,26.18,56.21,15.85,28.67,14.6c0,0-7.89.44-13.1,1a3.67,3.67,0,0,0-3.28,3.82Z"/><path class="cls-3" d="M193.18,334.94l-13.64-57.26h0l-6.45-26.15a7.23,7.23,0,0,1-.21-1,3.33,3.33,0,0,1,1.71-3.41,3.24,3.24,0,0,1,3.56,0,10.11,10.11,0,0,1,.87.58c6.77,4.94,13.57,9.84,20.29,14.85a1.16,1.16,0,0,0,1.15.13c5.34-2.37,10.74-4.6,16.12-6.86,3-1.28,6.09-2.58,9.14-3.83a3.38,3.38,0,0,1,4.2,1,3.32,3.32,0,0,1,.79,1.91,4.74,4.74,0,0,1-.7,2.57q-9.63,20.13-19.25,40.25Z"/></g></g></svg>