<svg xmlns="http://www.w3.org/2000/svg" xmlns:xlink="http://www.w3.org/1999/xlink" viewBox="0 0 1141 748.69"><defs><style>.cls-1{fill:#009bd9;}.cls-2{fill:#fff;}.cls-3{fill:#a53124;}.cls-4{fill:url(#Degradado_sin_nombre_41);}</style><linearGradient id="Degradado_sin_nombre_41" x1="574.48" y1="451.47" x2="566.65" y2="698.28" gradientUnits="userSpaceOnUse"><stop offset="0" stop-color="#009bd9"/><stop offset="0.11" stop-color="#0587be"/><stop offset="0.32" stop-color="#0e658e"/><stop offset="0.52" stop-color="#154a68"/><stop offset="0.71" stop-color="#1a364d"/><stop offset="0.87" stop-color="#1d2a3d"/><stop offset="1" stop-color="#1e2637"/></linearGradient></defs><title>Recurso 14</title><g id="Capa_2" data-name="Capa 2"><g id="Capa_1-2" data-name="Capa 1"><path class="cls-1" d="M243.54,52.5l36.6,93.4a12.37,12.37,0,0,0,14.3,7.46c50.43-11.59,278.53-56.81,553.6.32a12.34,12.34,0,0,0,14.06-7.63L897.65,52.4a12.1,12.1,0,0,0-8.6-16c-63.17-15.28-340.6-73.57-637,0A12.12,12.12,0,0,0,243.54,52.5Z"/><path class="cls-2" d="M590.15,422.81a40.09,40.09,0,0,1-11.1-1.73,95.75,95.75,0,0,1-29-13.61c-12.95-9.3-15.25-21.39-14.88-30.6a157.71,157.71,0,0,1-19.57,23.52c-14.88,14.41-31.89,21.38-52.08,21.38a97.86,97.86,0,0,1-11.73-.74c-16.25-2-32.77-7.94-44.23-15.83a71.91,71.91,0,0,1-26.64-37.12C362.81,308,398.17,208.13,453.7,162.44,466,152.32,483.78,146,500.12,146a57.84,57.84,0,0,1,8.66.64c14.51,2.08,28.68,7.19,39.68,14.07a41.84,41.84,0,0,1,5.67-1.83l.53-.12c37.09-8.24,92.12-13.44,125.06-14.14h.47c14.22,0,24.14,4.7,31.24,14.78l.4.59.22.35c22.33-9,50.11-16.23,75-16.23,17.16,0,40.69,3.65,55.3,21a102.11,102.11,0,0,1,13.44,20.74A169.4,169.4,0,0,1,879,162.44C891.24,152.32,909,146,925.37,146a57.84,57.84,0,0,1,8.66.64c20.16,2.89,39.67,11.64,51,22.85,12.79,12.72,19.52,28.46,20.56,48.1,2.89,55.95-20.52,139.6-64.71,182.77-14.87,14.41-31.89,21.38-52.08,21.38A98,98,0,0,1,877,421c-16.25-2-32.77-7.94-44.23-15.83a61.75,61.75,0,0,1-5.56-4.38,42.31,42.31,0,0,1-4.32,4.12c-.1.1-.21.18-.31.27-9.13,7.47-15.66,9.37-22,11.2l-.94.27a46.3,46.3,0,0,1-13.88,2.18c-11.72,0-22.55-4.62-32.19-13.75-7.73-6.93-17.21-17.8-26.64-30.23-2.57,8.22-5,16.12-7.19,23.64-5.75,20-20,23-27.94,23a41.9,41.9,0,0,1-9.79-1.27l-.93-.24c-7.76-2.21-17.73-5.5-26-11.4-18.76-13.47-15.38-32.33-13.93-40.39,0-.18.07-.37.11-.55,7.22-34.78,27-99,40-139.89l-10.17,1c-18.07,52.87-38.55,118.44-53.34,170.93C612,419.83,598,422.81,590.15,422.81ZM795.83,320.7q2.71,4,5.6,8.06.14-5.85.67-11.87Q799,318.83,795.83,320.7ZM911,268.65c-2.49,5.25-4.87,10.79-7,16.49A208.37,208.37,0,0,0,896,311.43c3.14-6.93,6.38-15,9.54-24.38C907.64,281,909.45,274.74,911,268.65Zm-425.25,0c-2.49,5.24-4.88,10.78-7,16.48a205.48,205.48,0,0,0-7.94,26.28,259.71,259.71,0,0,0,9.53-24.37C482.39,281,484.19,274.74,485.74,268.66ZM310.48,421.9c-10.17,0-22.07-1.79-29.6-4.47-23.46-8.16-23.46-30.37-23.46-37.67,0-4.84.11-9.93.3-15.34-10.77,1.93-21.37,4-30.53,6.1-5.51,10.37-11.08,21.15-16.62,32.17-.06.12-.12.24-.19.36-6.29,11.95-15.2,18-26.49,18a37.35,37.35,0,0,1-14.42-3.3c-10.34-4.25-18.57-9.95-25.16-17.44-15.2-17.28-7.51-35.11-4.23-42.73,0-.1.09-.22.14-.32,24.34-53.91,72.55-143,103.18-190.66,10-15.52,23.59-23,41.58-23l1.95,0c17.92.44,40.21,6.32,53.29,11.61l.18.07c21.29,8.83,23.25,26.78,21.11,40.36-6.09,42.45-14.37,126.67-19.28,196.13C341.27,410.92,329.72,421.9,310.48,421.9Z"/><path class="cls-3" d="M212.73,352.5c-7.93,14.71-15.15,28.7-21.28,40.89-4,7.53-6.85,7.89-13.7,5a45.25,45.25,0,0,1-17.32-11.83c-5.05-5.74-5.05-10.76-.72-20.81C183.52,313,230.77,225.52,261.43,177.82c5.77-9,12.26-13.63,24.89-13.27,14.78.35,34.26,5.38,45.8,10,8.66,3.59,9.74,9,8.3,17.93-6.49,45.2-14.79,131.64-19.48,198-.36,8.25-2.52,10.4-10.46,10.4s-17.31-1.43-22.36-3.22c-7.22-2.51-9.38-7.18-9.38-17.94,0-11.48.72-25.11,1.44-40.53C257.1,343.17,231.13,347.48,212.73,352.5Zm70-57.39c2.16-28.34,5.05-57.75,8.29-83.22-14.06,23.68-32.46,56-50.49,88.6C254.57,298.34,269,296.19,282.71,295.11ZM559,218.71c2.53,48.78-17.67,127-58.43,166.79-13.71,13.27-28.5,16.86-46.17,14.71-11.54-1.44-25.25-5.74-34.63-12.2a50.64,50.64,0,0,1-18.39-25.82c-15.51-51.3,15.87-142.41,66-183.66,10.46-8.6,26.69-12.91,38.23-11.11,15.15,2.15,30.66,8.6,38.95,16.85C554.3,194,558.27,205.08,559,218.71ZM458.72,277.89c-12.62,33.36-19.48,78.91-6.13,84.3,13,5.38,33.54-25.83,48-68.52,11.18-33,19.12-82.14,7.57-85.72C497,204.36,471.34,244.18,458.72,277.89ZM655.3,209.38c-19.48,56-42.2,128.41-58.07,184.73-2.17,7.53-4.69,9-12.26,6.81a74.43,74.43,0,0,1-22.37-10.4c-6.49-4.66-7.21-10-5.05-20.08,7.58-37.67,28.14-108,43.28-153.53-8.65,1.44-17.31,3.23-22.72,4.31-7.57,1.43-11.54.72-15.51-5.74-4.33-7.17-8.65-19-10.1-25.83-1.44-7.17,1.08-9,6.86-10.4,33.9-7.53,87.28-12.91,120.83-13.63,8.29,0,11.18,2.15,13.7,5.74a66.37,66.37,0,0,1,9,23.67c1.08,7.54.36,9.69-8.29,10.41C683.07,206.51,667.92,208,655.3,209.38Zm44,183.29c-2.16,7.54-4.69,9-12.26,7.18-7.58-2.15-14.43-4.66-19.48-8.25-6.49-4.66-7.21-9.69-5.41-19.73,6.85-33,26-95.77,42.56-147.42a164.42,164.42,0,0,1-8.65-17.94c-3.25-9-2.89-13.27,4.68-17.57,35.35-19.73,103.16-36.59,125.16-10.41,9,10.77,16.6,25.83,19.12,44.84,2.53,20.09-6.85,36.59-20.92,50.22-14.43,14-35,28-58.43,39.45,11.54,19.37,30.66,45.56,44.36,61.7,5.78,6.46,4,10-1.08,14.35-6.13,5-9.38,5.74-15.51,7.53-6.85,2.15-15.51,2.51-25.25-6.82-13.7-12.19-34.26-39.45-48-63.13C712.65,349.27,705.43,371.87,699.3,392.67Zm37.51-113.34c42.57-16.14,70.34-48.79,67.45-60.26-1.8-8.25-22.36-10-45.45,1.07C752,237,744.75,257.45,736.81,279.33Zm247.43-60.62c2.53,48.78-17.67,127-58.43,166.79-13.71,13.27-28.49,16.86-46.17,14.71-11.54-1.44-25.25-5.74-34.62-12.2a50.6,50.6,0,0,1-18.4-25.82c-15.51-51.3,15.87-142.41,66-183.66,10.46-8.6,26.69-12.91,38.23-11.11,15.15,2.15,30.66,8.6,38.95,16.85C979.55,194,983.52,205.08,984.24,218.71ZM884,277.89c-12.62,33.36-19.48,78.91-6.13,84.3,13,5.38,33.54-25.83,48-68.52,11.18-33,19.12-82.14,7.58-85.72C922.2,204.36,896.59,244.18,884,277.89Z"/><path class="cls-2" d="M922.78,748.69a38,38,0,0,1-18.51-4.78,38,38,0,0,1-18.51,4.78H694.47c-20.81,0-37.75-16.66-37.75-37.14V610L607.46,725.88a37.66,37.66,0,0,1-34.82,22.81H501.36a37.67,37.67,0,0,1-34.82-22.8l-49-115.2V711.55c0,20.48-16.93,37.14-37.75,37.14H313.31a38,38,0,0,1-22.66-7.45A38,38,0,0,1,268,748.69H211.72a37.88,37.88,0,0,1-29.08-13.46l-42.82-50.9v27.22c0,20.48-16.93,37.14-37.74,37.14H37.75C16.93,748.69,0,732,0,711.55V478.8c0-20.47,16.93-37.14,37.75-37.14H94a37.89,37.89,0,0,1,29.08,13.46L165.92,506V478.8c0-20.47,16.93-37.14,37.75-37.14H268a37.93,37.93,0,0,1,22.66,7.46,38,38,0,0,1,22.66-7.46H379.8a38.28,38.28,0,0,1,11.29,1.7,38.37,38.37,0,0,1,11.3-1.7h71.33a37.59,37.59,0,0,1,35,23.23l31.83,77.52,32.72-77.8a37.63,37.63,0,0,1,34.88-22.95H671.6a38.36,38.36,0,0,1,11.45,1.74,38.09,38.09,0,0,1,11.42-1.74h186.6a38,38,0,0,1,20.86,6.2,38,38,0,0,1,20.85-6.2h66.49c20.82,0,37.75,16.67,37.75,37.14V627.1h76.23c20.82,0,37.75,16.66,37.75,37.14v47.31c0,20.48-16.93,37.14-37.75,37.14Z"/><path class="cls-4" d="M277.31,460.62V693.37a9.24,9.24,0,0,1-9.32,9.16H211.72a9.39,9.39,0,0,1-7.18-3.32l-76.66-91.13c-5.56-6.62-16.49-2.74-16.49,5.84v79.45a9.24,9.24,0,0,1-9.31,9.16H37.75a9.24,9.24,0,0,1-9.32-9.16V460.62a9.25,9.25,0,0,1,9.32-9.17H94a9.37,9.37,0,0,1,7.18,3.33l76.66,91.13c5.56,6.61,16.49,2.74,16.49-5.85V460.62a9.25,9.25,0,0,1,9.32-9.17H268A9.25,9.25,0,0,1,277.31,460.62Zm36-9.17H379.8a9.25,9.25,0,0,1,9.32,9.17V693.37a9.24,9.24,0,0,1-9.32,9.16H313.31a9.25,9.25,0,0,1-9.32-9.16V460.62A9.25,9.25,0,0,1,313.31,451.45ZM680.2,464.16l-99,232.74a9.32,9.32,0,0,1-8.59,5.63H501.36a9.32,9.32,0,0,1-8.6-5.63l-99-232.74a9.19,9.19,0,0,1,8.6-12.71h71.33a9.31,9.31,0,0,1,8.64,5.74l49.35,120.18a9.37,9.37,0,0,0,17.24.07l50.59-120.32a9.32,9.32,0,0,1,8.61-5.67H671.6A9.19,9.19,0,0,1,680.2,464.16ZM895.08,647.85v45.52a9.25,9.25,0,0,1-9.32,9.16H694.47a9.24,9.24,0,0,1-9.32-9.16V460.62a9.25,9.25,0,0,1,9.32-9.17h186.6a9.25,9.25,0,0,1,9.32,9.17v45.51a9.24,9.24,0,0,1-9.32,9.17H778.15a9.24,9.24,0,0,0-9.32,9.17v11.08a9.24,9.24,0,0,0,9.32,9.16h88.13a9.25,9.25,0,0,1,9.32,9.17v42.64a9.25,9.25,0,0,1-9.32,9.17H778.15a9.24,9.24,0,0,0-9.32,9.16v14.67a9.25,9.25,0,0,0,9.32,9.17H885.76A9.25,9.25,0,0,1,895.08,647.85Zm27.7-196.4h66.49a9.25,9.25,0,0,1,9.32,9.17V627.73a9.24,9.24,0,0,0,9.32,9.16h95.34a9.25,9.25,0,0,1,9.32,9.17v47.31a9.24,9.24,0,0,1-9.32,9.16H922.78a9.24,9.24,0,0,1-9.31-9.16V460.62A9.24,9.24,0,0,1,922.78,451.45Z"/><path class="cls-2" d="M309.65,59.24c-9.18,1.71-13.76,2.61-22.92,4.47l-2.12-10.1q29.47-6,59.21-10.75c.67,4.07,1,6.1,1.68,10.18-9.21,1.47-13.8,2.24-23,3.86q5,27.23,9.94,54.45c-4.94.87-7.4,1.32-12.34,2.24Q314.88,86.41,309.65,59.24Z"/><path class="cls-2" d="M400.84,50.61q3.07,24.86,6.14,49.7c-4.55.55-6.83.83-11.37,1.41-.34-2.53-.5-3.79-.84-6.32a19.27,19.27,0,0,1-6.48,6.1,24.1,24.1,0,0,1-9,3.08c-6.81,1-12.43-.08-16.93-3.15S355,93.22,353.82,86q-2.29-14.11-4.6-28.24c4.95-.77,7.42-1.15,12.37-1.89,1.64,10.68,2.46,16,4.09,26.7q1,6.68,4.66,9.51t9.38,2q6.43-.88,9.72-5.24c2.19-2.9,3-6.77,2.33-11.61-1.33-10-2-15.06-3.33-25.1C393.4,51.52,395.88,51.21,400.84,50.61Z"/><path class="cls-2" d="M488.11,71.78q-20.44,1.17-40.84,3A13.7,13.7,0,0,0,453.62,83a19,19,0,0,0,11.43,2.34,19.45,19.45,0,0,0,13.65-6.41c2.79,2.71,4.18,4.07,6.95,6.8a22.14,22.14,0,0,1-8.37,6.64,36.45,36.45,0,0,1-26.89.83A24.66,24.66,0,0,1,439.57,85a25.41,25.41,0,0,1-4.85-12.87,24.93,24.93,0,0,1,2.2-13.44,23.82,23.82,0,0,1,8.89-10,29.49,29.49,0,0,1,13.85-4.42,28.78,28.78,0,0,1,14.12,2.23A23.19,23.19,0,0,1,483.89,55,26.22,26.22,0,0,1,488.1,68.3C488.15,69.12,488.15,70.27,488.11,71.78Zm-37.46-14A13.63,13.63,0,0,0,446.47,67q14.83-1.32,29.7-2.28a13.57,13.57,0,0,0-5.44-8.47,16.64,16.64,0,0,0-20.08,1.5Z"/><path class="cls-2" d="M577.75,45.7c3.89,3.68,5.76,9.2,5.67,16.51l-.36,28.69c-4.81-.06-7.21-.08-12-.09,0-10.88.06-16.32.09-27.19q0-6.57-3-9.9c-2-2.22-5-3.33-8.82-3.31a13.14,13.14,0,0,0-9.95,4q-3.71,3.95-3.58,11.16l.4,25.41c-4.81.07-7.21.12-12,.23-.28-10.87-.41-16.3-.68-27.18q-.16-6.56-3.32-9.81c-2.1-2.16-5.07-3.19-8.9-3.06-4.23.13-7.53,1.54-9.9,4.2s-3.42,6.43-3.21,11.3c.45,10.16.68,15.23,1.12,25.39-4.8.2-7.2.32-12,.56l-2.67-50c4.74-.25,7.12-.36,11.87-.57.11,2.55.17,3.83.28,6.37A19,19,0,0,1,514,43a26.36,26.36,0,0,1,9.92-2.12,25,25,0,0,1,10.68,1.82A16.8,16.8,0,0,1,542,48.73a21.62,21.62,0,0,1,8.36-6.26,28.34,28.34,0,0,1,11.45-2.29C568.55,40.15,573.87,42,577.75,45.7Z"/><path class="cls-2" d="M639,45.23A23.23,23.23,0,0,1,648,54.74a25.53,25.53,0,0,1,2.61,13.59,26.52,26.52,0,0,1-4.24,13.23,23.74,23.74,0,0,1-9.83,8.51A28.42,28.42,0,0,1,623,92.63c-6.91-.29-12.29-2.71-16.21-7.33-.3,9.71-.45,14.56-.74,24.27-4.74-.14-7.11-.2-11.85-.3q.74-34.12,1.46-68.24c4.75.1,7.12.16,11.87.3-.08,2.62-.12,3.93-.19,6.56a18.81,18.81,0,0,1,7.78-5.1,26.87,26.87,0,0,1,10.09-1.4A29,29,0,0,1,639,45.23Zm-5.68,33.51a15.41,15.41,0,0,0,4.92-11.11c.26-4.68-1-8.54-3.78-11.55a15.19,15.19,0,0,0-11-4.82,16.43,16.43,0,0,0-8.09,1.62,14.15,14.15,0,0,0-5.82,5.3,16.18,16.18,0,0,0-2.32,8.18A16.44,16.44,0,0,0,609,74.67a14.24,14.24,0,0,0,5.35,5.66,16.11,16.11,0,0,0,7.77,2.22A15.12,15.12,0,0,0,633.28,78.74Z"/><path class="cls-2" d="M690.9,45.69c-.41,4.44-.61,6.67-1,11.11a16,16,0,0,0-2.84-.53c-4.81-.42-8.68.6-11.58,3s-4.55,6.15-4.94,11.14l-1.9,24.21c-4.79-.37-7.19-.54-12-.86l3.45-49.95c4.74.32,7.11.49,11.86.84-.23,2.92-.35,4.38-.57,7.3C675.34,47,681.88,44.89,690.9,45.69Z"/><path class="cls-2" d="M742.76,80.88Q722.44,78.24,702,76.22a13.54,13.54,0,0,0,4.66,9.28,18.9,18.9,0,0,0,10.78,4.42,19.61,19.61,0,0,0,14.65-3.76c2.23,3.18,3.33,4.78,5.53,8a22.27,22.27,0,0,1-9.5,5,33.59,33.59,0,0,1-12.1.67,33.22,33.22,0,0,1-14.49-4.83,24.46,24.46,0,0,1-9.06-10.07,25.15,25.15,0,0,1-2.29-13.53,25,25,0,0,1,4.72-12.8,24.1,24.1,0,0,1,10.65-8.15,29.71,29.71,0,0,1,14.46-1.79A28.75,28.75,0,0,1,733.5,53.4a23.08,23.08,0,0,1,8.32,10.2,26,26,0,0,1,1.59,13.87C743.31,78.27,743.09,79.41,742.76,80.88ZM708.61,60.15a13.82,13.82,0,0,0-5.88,8.32q14.84,1.45,29.64,3.26a13.48,13.48,0,0,0-3.73-9.32,15.09,15.09,0,0,0-9.66-4.5A15.44,15.44,0,0,0,708.61,60.15Z"/><path class="cls-2" d="M751.52,102.59a32,32,0,0,1-8.92-5.27c2.32-3.29,3.49-4.93,5.83-8.21a31.39,31.39,0,0,0,7.82,4.72,37.29,37.29,0,0,0,9.36,2.73c7.16,1.06,11-.19,11.62-3.83a3.69,3.69,0,0,0-2.16-4,47.23,47.23,0,0,0-8.55-3.28,83.41,83.41,0,0,1-10.1-3.63,16.47,16.47,0,0,1-6.4-5.19q-2.55-3.42-1.82-8.8c.65-4.71,3.24-8.2,7.83-10.45s10.45-2.85,17.58-1.79a51.38,51.38,0,0,1,10.7,2.83,31.29,31.29,0,0,1,8.36,4.53c-2.48,3.2-3.72,4.81-6.19,8a30,30,0,0,0-14.41-6q-5.42-.81-8.44.33c-2,.75-3.15,2-3.39,3.64a4.07,4.07,0,0,0,2.4,4.36,49.3,49.3,0,0,0,8.89,3.54,74.24,74.24,0,0,1,9.88,3.71,16,16,0,0,1,6.16,5.17q2.37,3.33,1.47,8.6c-.79,4.63-3.51,8-8.1,10.09S770.51,107,763.4,105.9A48.71,48.71,0,0,1,751.52,102.59Z"/><path class="cls-2" d="M838.62,72.26c3.37,4.27,4.29,9.9,2.82,16.88q-3,14.37-6,28.74c-4.47-.91-6.7-1.36-11.18-2.23.49-2.39.73-3.59,1.21-6a14.23,14.23,0,0,1-7.21,3.73,26,26,0,0,1-10.05-.11,25.14,25.14,0,0,1-9.62-3.67,15.62,15.62,0,0,1-5.69-6.41,13.2,13.2,0,0,1-1-8,13.05,13.05,0,0,1,7-9.8c3.93-2.08,9.64-2.48,17.08-1.11,5.35,1,8,1.5,13.37,2.53l.15-.73c.69-3.43.14-6.28-1.68-8.54s-4.87-3.8-9.18-4.59a29.18,29.18,0,0,0-8.9-.28A21.72,21.72,0,0,0,801.87,75c-1.31-3.69-2-5.54-3.32-9.23A31,31,0,0,1,809.3,63a46.33,46.33,0,0,1,12.62.67C829.67,65.08,835.25,68,838.62,72.26Zm-18,32.61a11.25,11.25,0,0,0,6.06-4.71c.45-2.28.68-3.42,1.14-5.7-5-1-7.45-1.44-12.43-2.36-6.94-1.28-10.82.3-11.62,4.67a5.88,5.88,0,0,0,1.68,5.44c1.49,1.54,3.76,2.58,6.82,3.15A16.32,16.32,0,0,0,820.59,104.87Z"/></g></g></svg>